<?xml version="1.0" standalone="no"?>
<!DOCTYPE svg PUBLIC "-//W3C//DTD SVG 20010904//EN"
 "http://www.w3.org/TR/2001/REC-SVG-20010904/DTD/svg10.dtd">
<svg version="1.0" xmlns="http://www.w3.org/2000/svg"
 width="300.000000pt" height="300.000000pt" viewBox="0 0 300.000000 300.000000"
 preserveAspectRatio="xMidYMid meet">

<g transform="translate(0.000000,300.000000) scale(0.100000,-0.100000)"
fill="#000000" stroke="none">
<path d="M1342 2860 c-206 -54 -366 -213 -427 -425 -23 -76 -27 -284 -6 -308
18 -22 64 -21 84 1 13 14 17 39 17 109 0 118 13 183 52 263 43 89 123 167 221
215 70 34 86 38 176 43 157 7 273 -37 375 -143 95 -100 133 -211 135 -392 1
-60 5 -86 17 -97 21 -22 57 -20 79 4 15 17 17 35 13 147 -4 106 -9 141 -31
203 -103 291 -411 457 -705 380z"/>
<path d="M923 2042 c-32 -5 -73 -47 -79 -82 l-6 -30 -155 0 c-85 0 -163 -4
-173 -10 -10 -5 -23 -25 -29 -42 -18 -57 -153 -662 -153 -686 0 -13 8 -32 18
-42 32 -31 384 -105 694 -146 147 -19 614 -28 760 -14 225 22 480 64 684 112
129 30 166 49 166 86 0 25 -148 672 -161 704 -6 14 -20 29 -32 32 -12 3 -88 6
-169 6 l-146 0 -7 29 c-7 34 -38 65 -80 81 -57 22 -145 -35 -145 -94 0 -14
-42 -16 -417 -16 l-418 0 -16 39 c-24 56 -74 84 -136 73z"/>
<path d="M346 983 c-3 -15 -19 -122 -36 -238 -17 -115 -40 -269 -50 -342 -24
-157 -24 -154 -6 -178 12 -16 28 -19 117 -20 l104 -2 5 -29 5 -29 80 0 80 0 5
30 5 29 832 1 832 0 3 -29 3 -29 85 -1 85 -1 3 30 3 30 92 -1 c133 -1 153 15
138 108 -5 29 -31 197 -57 373 -25 176 -47 321 -48 322 -1 1 -26 -4 -56 -12
-203 -55 -555 -110 -820 -130 -60 -5 -88 -11 -95 -22 -49 -75 -95 -103 -171
-103 -59 0 -114 30 -145 80 l-24 38 -90 7 c-130 9 -322 33 -460 56 -120 20
-365 72 -397 84 -12 5 -18 -1 -22 -22z"/>
</g>
</svg>
